<svg xmlns="http://www.w3.org/2000/svg" viewBox="0 0 12.7 12.7">
  <path fill="#f5a554" d="M7.034.007c-2.33 0-4.952.017-5.068.045C.974.288.279.977.059 1.942c-.066.29-.083 8.365-.018 8.732a2.452 2.452 0 0 0 2.028 1.995c.237.04 8.385.042 8.613.002a2.47 2.47 0 0 0 1.987-1.953c.047-.235.038-8.544-.009-8.758A2.458 2.458 0 0 0 10.627.036c-.144-.021-1.78-.03-3.593-.03zm-4.2.366a2.255 2.255 0 1 1 0 4.509 2.255 2.255 0 0 1 0-4.51zm0 .375c-.79 0-1.466.491-1.743 1.183.121-.004.243 0 .38.013a.344.344 0 0 1 .497-.09c.389-.196.825-.3 1.287-.294a.303.303 0 0 1 .098-.162 2.573 2.573 0 0 0-.519-.65zm.358.036c.148.165.276.344.38.536a.4.4 0 0 1 .398.34c.209.059.41.142.599.247A1.884 1.884 0 0 0 3.192.784zm3.322.656c.034 0 .079.006.139.014 1.024.122 1.865 1.02 1.865 1.992 0 .091 0 .091-.216.091-.157 0-.219-.006-.224-.023a2.8 2.8 0 0 1-.028-.186A1.65 1.65 0 0 0 6.584 1.91c-.168-.017-.169-.017-.169-.242 0-.185-.001-.23.1-.229zm-3.307.347a2.55 2.55 0 0 0-1.111.26l.008.04c.625.219 1.134.652 1.458 1.183l.042-.004a2.571 2.571 0 0 0-.006-1.26h-.001a.408.408 0 0 1-.313-.218l-.077-.001zm.704.095a.306.306 0 0 1-.089.08c.115.458.11.933 0 1.369.176.129.182.389.014.541.03.096.055.194.075.293a1.877 1.877 0 0 0 .762-1.924 2.55 2.55 0 0 0-.762-.36zm-2.747.275c-.05 0-.099.002-.148.005-.038.15-.06.305-.06.465l.004.086c.138-.19.294-.357.467-.503l-.007-.042a2.522 2.522 0 0 0-.256-.011zm5.4.106c.523.005 1.112.594 1.133 1.15.007.184-.421.191-.453.007a.846.846 0 0 0-.688-.695c-.176-.035-.213-.45-.042-.46a.682.682 0 0 1 .05-.002zm-4.51.049a.344.344 0 0 1-.5.092 2.578 2.578 0 0 0-.547.654A1.876 1.876 0 0 0 2.88 4.504c.19-.181.353-.39.481-.622a.35.35 0 0 1-.004-.506c-.3-.486-.759-.865-1.303-1.064zm4.363.73a.5.5 0 0 1 .329.884c-.088.077-.088.077-.083.271.006.194.006.194.663.205.997.017 1.398.171 1.82.699.252.313.485.976.411 1.168-.009.024-.156.028-1.088.028-.592 0-1.077.005-1.077.011 0 .007.065.081.145.166.08.085.175.207.211.271.15.266.015.236 1.1.246 1.137.012 1.176.02 1.496.3.329.29.36.424.37 1.623.01.994.01.994.094 1.038.24.127.361.331.372.63.008.202.008.202-.21.202s-.218 0-.218-.099c0-.448-.48-.51-.507-.064-.01.153-.01.153-.231.159-.223.005-.223.005-.216-.188.01-.302.126-.502.368-.635.12-.066.143-1.889.028-2.123-.105-.212-.328-.373-.527-.38-.088-.003-.088-.003-.099.87-.011.921-.016.975-.11 1.244-.17.492-.738 1.107-.856.927-.39-.596-1.522-.466-1.886.216-.09.17-.635.173-.722.002-.245-.476-.864-.718-1.386-.542-.185.063-.167.064-.335-.034a1.442 1.442 0 0 1-.669-.879c-.027-.101-.032-.228-.033-.948-.002-.871-.003-.877-.087-.865-.06.009-.08 1.655-.024 1.912.082.376.329.719.656.91.146.085.145.08.026.199-.095.095-.095.095-.145.063a1.99 1.99 0 0 1-.707-.851c-.128-.305-.129-.317-.14-1.316-.01-.91-.01-.91-.098-.908-.214.007-.476.208-.559.43-.089.237-.055 2.008.04 2.057.25.128.381.352.381.655 0 .197 0 .197-.204.202-.252.007-.256.005-.256-.174 0-.416-.452-.391-.486.027-.011.142-.011.142-.227.142s-.216 0-.215-.206c.002-.303.11-.492.36-.634.099-.055.099-.055.099-.96 0-1.225.026-1.349.352-1.674.305-.304.417-.327 1.568-.327 1.039 0 .9.03 1.046-.23.036-.063.135-.189.22-.278.085-.09.15-.168.143-.175a16.193 16.193 0 0 0-.871-.012c-.67 0-.86-.005-.867-.024-.063-.164.146-.671.38-.922.346-.372.485-.407 1.887-.48 1.498-.079 1.495-.092-.019-.088-1.277.003-1.277.002-1.427.055-.56.197-.93.68-.965 1.261-.011.188-.011.188-.142.188-.172 0-.186-.155-.053-.581.288-.925.902-1.287 2.212-1.305.732-.01.732-.01.737-.203.005-.193.005-.193-.096-.286a.496.496 0 0 1 .327-.87zm-2.791.925l-.05.001c-.095.175-.21.34-.341.494.165-.036.322-.094.468-.17a2.586 2.586 0 0 0-.077-.325zm4.469 1.247a.412.412 0 0 0-.22.068c-.277.176-.22.594.096.707a.376.376 0 0 0 .413-.116c.25-.283.018-.661-.29-.66zM6.359 6.542a1.07 1.07 0 0 0-1.063.862c-.117.557.263 1.14.827 1.27.82.187 1.541-.641 1.247-1.432a1.05 1.05 0 0 0-1.01-.7zm-.067.34c.084-.003.139.037.13.137-.033.345.229.529.588.414.037-.012.042-.005.054.075a.732.732 0 0 1-.4.754c-.568.278-1.203-.308-.98-.904.095-.254.422-.47.608-.476zm-1.642.562l-.03.001c-.073.006-.073.006-.07.241.01.839.647 1.573 1.502 1.728 1.068.193 2.106-.664 2.117-1.747.002-.216.002-.216-.083-.216-.084 0-.084 0-.095.226-.084 1.679-2.303 2.183-3.085.7-.131-.247-.224-.651-.192-.83.014-.073-.002-.101-.064-.103zm3.083 2.895c.392 0 .784.227.908.691.062.234.08.223-.383.223-.225 0-.637.006-.915.012-.594.015-.567.023-.533-.165.089-.503.505-.76.923-.76zm-2.78.001c.497.005.991.373.952.85-.007.08-1.837.132-1.867.053-.063-.163.166-.593.402-.753a.891.891 0 0 1 .514-.15zm2.75.097a.753.753 0 0 0-.27.05c-.245.092-.51.461-.448.624.037.097.337.025.362-.087a.757.757 0 0 1 .378-.502c.1-.05.067-.082-.021-.085zm-2.758.01l-.055.002a.702.702 0 0 0-.652.566c-.01.05-.015.099-.009.109.054.086.335 0 .357-.108a.681.681 0 0 1 .328-.469c.128-.079.141-.102.03-.1z"/>
  <path fill="#db5e4f" d="M6.35.011c-2.12 0-4.241.014-4.365.04C.995.262.265.985.057 1.961.02 2.132.007 6.997.041 8.177c.015.52.04.58.172.41a.047.047 0 0 1 .053-.013c.02.007.058-.002.092-.023a.72.72 0 0 1 .235-.058c.097-.011.198-.032.225-.046A.659.659 0 0 1 .99 8.41c.067-.008.18-.03.252-.051a.546.546 0 0 1 .195-.028c.041.007.08 0 .108-.019.043-.028.142-.028.292-.002.078.014.11-.04.11-.18 0-.49.344-.949.836-1.116.15-.05.15-.05 1.092-.05.518 0 .945-.005.95-.01.005-.005.028-.048.051-.094.07-.14.178-.285.299-.403a.784.784 0 0 0 .114-.127c0-.008-.384-.014-.853-.014-.94 0-.884.008-.877-.127.027-.52.437-1.026.975-1.206.174-.058.174-.058 1.21-.114 1.4-.075 1.398-.09-.014-.086-1.164.003-1.164.003-1.295.047-.57.19-.95.664-.979 1.223-.015.284-.002.265-.172.259-.184-.007-.202-.198-.058-.62.315-.921.918-1.275 2.194-1.287.838-.008.77.011.77-.22 0-.174 0-.174-.083-.242a.505.505 0 0 1 .318-.9c.473-.002.68.55.33.883-.096.091-.096.091-.096.272 0 .221-.054.201.517.19.486-.011.77.006.976.06.772.199 1.361.89 1.412 1.658.015.229.12.209-1.1.21-1.06 0-1.06 0-.938.126.141.148.186.208.289.388.076.133.076.133 1.023.144 1.052.011 1.019.007 1.285.146.524.272.609.532.61 1.866 0 .915 0 .915.09.96.24.124.37.35.37.65 0 .197 0 .197-.225.197s-.225 0-.236-.145c-.028-.397-.468-.428-.468-.033 0 .197.013.188-.257.188-.235 0-.235 0-.228-.212.012-.315.136-.529.379-.649.121-.06.133-1.901.014-2.121-.11-.203-.312-.344-.5-.349-.093-.002-.093-.002-.103.918-.011 1.014-.012 1.02-.159 1.353-.184.416-.817 1.02-.817.778 0-.113-.478-.35-.779-.385-.402-.047-1.122.393-1.016.621.029.062.036.059.115-.05a.989.989 0 0 1 1.778.42c.03.169.083.157-.793.173-.423.007-.773.02-.777.026-.02.03.013.115.037.096.032-.027.052.006.036.057-.007.023.005.072.029.121.022.046.035.092.029.102-.007.01-.004.034.005.053.01.018.027.067.04.108.012.042.034.1.048.132.014.03.04.13.058.22.03.157.047.189.074.145.008-.014.02-.013.038.002.015.012.021.03.014.041a.443.443 0 0 0 .015.233c.016.019.128.026.464.03 1.534.018 2.517.013 2.674-.014a2.433 2.433 0 0 0 1.976-1.975c.042-.243.042-8.405 0-8.647-.173-.993-.929-1.762-1.943-1.979C10.59.025 8.47.011 6.35.011zM2.836.373a2.255 2.255 0 1 1 0 4.509 2.255 2.255 0 0 1 0-4.51zm0 .375c-.79 0-1.467.491-1.744 1.183.121-.004.244 0 .38.013a.344.344 0 0 1 .498-.09c.388-.196.825-.3 1.286-.294a.303.303 0 0 1 .099-.161 2.573 2.573 0 0 0-.52-.65zm.357.036c.149.165.277.344.38.536a.4.4 0 0 1 .398.34c.21.059.41.142.6.247A1.884 1.884 0 0 0 3.192.784zm3.321.656c.034 0 .079.006.139.014A2.117 2.117 0 0 1 8.52 3.336c.013.124.013.173-.004.193-.017.02-.072.027-.226.027-.232 0-.242-.007-.243-.154-.002-.711-.693-1.414-1.464-1.491-.168-.017-.169-.017-.169-.242 0-.185-.001-.23.1-.229zm-3.305.347a2.55 2.55 0 0 0-1.112.26l.008.04c.626.219 1.135.652 1.458 1.183l.042-.004a2.572 2.572 0 0 0-.005-1.26h-.002a.408.408 0 0 1-.313-.218l-.076-.001zm.704.095a.306.306 0 0 1-.09.08c.115.458.11.933 0 1.369.176.129.183.389.014.541.03.096.055.194.075.293a1.877 1.877 0 0 0 .762-1.924 2.55 2.55 0 0 0-.761-.36zm-2.747.275c-.05 0-.1.002-.148.005-.039.15-.061.305-.061.465l.004.086c.139-.19.294-.357.468-.503l-.008-.042a2.521 2.521 0 0 0-.255-.011zm5.385.104c.534-.003 1.144.6 1.15 1.154 0 .131 0 .131-.206.137-.226.005-.254-.005-.254-.092 0-.327-.313-.658-.696-.736-.156-.031-.197-.448-.045-.46a.684.684 0 0 1 .051-.003zm-4.496.05a.344.344 0 0 1-.5.093 2.578 2.578 0 0 0-.546.654A1.876 1.876 0 0 0 2.88 4.504c.19-.181.353-.39.481-.622a.35.35 0 0 1-.003-.506c-.3-.486-.76-.865-1.304-1.064zm1.572 1.656l-.05.001c-.095.175-.21.34-.341.494.165-.036.322-.094.468-.17a2.586 2.586 0 0 0-.077-.325zm4.467 1.26a.369.369 0 0 0-.178.043c-.294.155-.26.614.052.707a.396.396 0 0 0 .477-.215c.12-.26-.097-.532-.351-.535zm-1.729 1.32a.965.965 0 0 0-.152.012c-1.143.183-1.228 1.774-.111 2.074.612.166 1.25-.285 1.317-.93.064-.608-.46-1.156-1.054-1.156zm-.039.327c.092-.002.117.05.117.175 0 .31.225.479.509.382.111-.038.123-.026.135.138a.74.74 0 0 1-.549.764c-.932.242-1.307-1.16-.382-1.426a.717.717 0 0 1 .17-.033zm1.755.56c-.035 0-.07.064-.07.193 0 1.234-1.304 2.039-2.415 1.49a1.652 1.652 0 0 1-.908-1.468c0-.18-.02-.22-.092-.175-.07.046-.009.526.101.797.223.549.763.99 1.338 1.094 1.105.2 2.16-.663 2.122-1.736-.004-.129-.04-.194-.076-.195zm-5.054.042a.552.552 0 0 0-.18.07c-.367.186-.51.778-.187.778.04 0 .079.009.085.02.006.01.086.018.177.018.188 0 .189-.002.19-.599 0-.21-.01-.29-.085-.287zm.473.004c-.05 0-.057.872-.009.934.013.015.012.023-.002.023-.012 0-.021.008-.021.019 0 .022.031.025.043.004.042-.072.032-.98-.011-.98zm4.184 2.989c-.014-.001-.034 0-.06.004-.315.048-.59.324-.59.596 0 .083.257.045.269-.04a.797.797 0 0 1 .342-.5c.068-.036.08-.058.039-.06z"/>
  <path fill="#654ebc" d="M6.35.011c-2.12 0-4.241.014-4.365.04C1.003.261.29.96.058 1.941c-.03.13-.034.304-.04 2.14-.008 2.2-.005 2.263.088 2.242l.264-.067c.119-.03.246-.06.282-.064.068-.009.147-.022.46-.074.103-.017.255-.034.337-.038.082-.004.209-.016.282-.027.154-.023.111-.023.814-.015.355.004.555-.001.564-.013a.574.574 0 0 0 .037-.122c.013-.057.038-.137.057-.179.141-.308.182-.386.256-.499a2.006 2.006 0 0 1 1.088-.772c.14-.038.198-.041.873-.048.838-.008.77.011.77-.22 0-.174 0-.174-.083-.242a.505.505 0 0 1 .318-.9c.473-.002.68.55.33.883-.097.093-.153.45-.072.458.013.002.32.004.68.005.73.003.795.012 1.123.16.62.279 1.057.904 1.097 1.567.014.24.122.218-1.09.218-1.05 0-1.05 0-.909.148.078.081.183.219.234.305.093.158.093.157 1.03.168 1.03.012 1.021.01 1.263.133.542.276.63.526.637 1.812.006.98.006.98.104 1.035.24.135.355.34.366.649.01.253.018.245-.248.253-.267.009-.274.003-.274-.197 0-.4-.39-.37-.413.031-.01.16-.01.16-.124.165-.11.005-.196.154-.09.154.015 0 .027.01.027.024a.642.642 0 0 0 .064.206c.027.07.055.158.061.197.006.039.031.095.055.124.024.029.044.073.044.098 0 .025.009.081.02.125l.064.275c.03.125.04.206.03.226-.015.029-.009.244.01.337.01.044.013.045.144.032 1.008-.1 1.87-.929 2.05-1.971.043-.248.044-8.369.001-8.612-.18-1.026-.909-1.783-1.924-2C10.59.025 8.47.011 6.35.011zM2.834.373a2.292 2.292 0 0 1 .723.118 2.239 2.239 0 0 1 .538.267l.044.03.019.014a2.265 2.265 0 0 1 .416.391 2.267 2.267 0 0 1 .396.711l.012.036.005.017.004.012a2.235 2.235 0 0 1 .05.192l.002.012a2.253 2.253 0 0 1 .043.338 2.288 2.288 0 0 1-.068.68 2.236 2.236 0 0 1-.48.912 2.26 2.26 0 0 1-.444.394l-.015.01a2.254 2.254 0 0 1-1.754.317 2.237 2.237 0 0 1-1.046-.565A2.264 2.264 0 0 1 .65 3.191a2.24 2.24 0 0 1-.068-.68 2.275 2.275 0 0 1 .043-.338l.002-.012a2.241 2.241 0 0 1 .05-.192l.003-.012.017-.053a2.235 2.235 0 0 1 .397-.71A2.267 2.267 0 0 1 2.547.39a2.266 2.266 0 0 1 .287-.018zm0 .375a1.887 1.887 0 0 0-.415.047l-.015.003a1.859 1.859 0 0 0-.457.174 1.877 1.877 0 0 0-.391.28l-.002.002a1.896 1.896 0 0 0-.141.147 1.895 1.895 0 0 0-.322.53 2.813 2.813 0 0 1 .38.014.353.353 0 0 1 .1-.103.346.346 0 0 1 .301-.039.34.34 0 0 1 .096.05 2.765 2.765 0 0 1 1.287-.293.305.305 0 0 1 .036-.09.303.303 0 0 1 .062-.072 2.539 2.539 0 0 0-.14-.221 2.57 2.57 0 0 0-.379-.429zm.358.036a2.814 2.814 0 0 1 .207.258 2.684 2.684 0 0 1 .173.278c.024 0 .047.002.07.006h.004l.007.002a.402.402 0 0 1 .317.333c.209.058.41.141.599.246a1.867 1.867 0 0 0-.048-.105 1.878 1.878 0 0 0-.084-.152 1.886 1.886 0 0 0-.206-.276 1.894 1.894 0 0 0-.543-.419 1.87 1.87 0 0 0-.438-.16 1.866 1.866 0 0 0-.058-.011zm3.322.656c.034 0 .079.006.139.014 1.012.12 1.803.94 1.878 1.947.011.155.011.155-.216.155-.258 0-.266-.005-.267-.154-.002-.711-.693-1.414-1.464-1.491-.168-.017-.169-.017-.169-.242 0-.185-.001-.23.1-.229zm-3.307.347l-.073.001-.029.002-.045.002-.031.002-.043.004-.032.003-.042.004-.035.005-.037.005a2.549 2.549 0 0 0-.366.083c-.01.003-.02.005-.029.009l-.042.013-.03.01-.042.016-.027.01a2.553 2.553 0 0 0-.05.02l-.02.008a2.557 2.557 0 0 0-.05.021l-.02.01-.068.031.008.04a2.748 2.748 0 0 1 .498.234 2.782 2.782 0 0 1 .644.528 2.827 2.827 0 0 1 .15.18 2.8 2.8 0 0 1 .166.242l.042-.004.018-.08a2.56 2.56 0 0 0 .048-.316l.005-.08a2.568 2.568 0 0 0-.077-.783h-.001a.41.41 0 0 1-.289-.178.382.382 0 0 1-.024-.041l-.077-.001zm.704.095a.3.3 0 0 1-.04.044.32.32 0 0 1-.049.036 2.84 2.84 0 0 1 .079.865 2.792 2.792 0 0 1-.078.504.338.338 0 0 1 .023.02l.007.005.014.014.006.007a.329.329 0 0 1 .082.272.358.358 0 0 1-.119.223 2.537 2.537 0 0 1 .075.293 1.9 1.9 0 0 0 .131-.102 1.9 1.9 0 0 0 .234-.235l.029-.035.006-.008.034-.044a1.886 1.886 0 0 0 .174-.284l.024-.05.023-.052.02-.052a1.859 1.859 0 0 0 .07-.215l.013-.056a1.858 1.858 0 0 0 .03-.17l.006-.058c.003-.039.006-.078.007-.117a1.9 1.9 0 0 0-.04-.446 2.596 2.596 0 0 0-.46-.254 2.527 2.527 0 0 0-.301-.106zm-2.747.275a2.588 2.588 0 0 0-.148.005 2.092 2.092 0 0 0-.044.228 1.797 1.797 0 0 0-.017.237l.005.086c.138-.19.294-.357.467-.503l-.007-.042a2.594 2.594 0 0 0-.06-.005l-.018-.001a2.54 2.54 0 0 0-.044-.002l-.017-.001-.045-.002h-.072zm5.387.104c.534-.003 1.144.6 1.15 1.154 0 .131 0 .131-.206.137-.226.005-.254-.005-.254-.092 0-.327-.313-.658-.696-.736-.156-.031-.197-.448-.045-.46a.684.684 0 0 1 .051-.003zm-4.497.05a.344.344 0 0 1-.046.059L2 2.377a.34.34 0 0 1-.417.047.347.347 0 0 1-.03-.02 2.545 2.545 0 0 0-.547.654 1.87 1.87 0 0 0 .766 1.117l.026.019a1.858 1.858 0 0 0 .583.256 1.88 1.88 0 0 0 .244.043h.006a1.904 1.904 0 0 0 .248.01 2.593 2.593 0 0 0 .457-.578l.024-.043a.337.337 0 0 1-.037-.039.33.33 0 0 1-.057-.107.338.338 0 0 1-.016-.101.362.362 0 0 1 .106-.259 2.578 2.578 0 0 0-1.303-1.064zm1.572 1.656l-.05.001a2.704 2.704 0 0 1-.226.35l-.02.027c-.03.04-.062.079-.095.117a1.862 1.862 0 0 0 .468-.17 2.547 2.547 0 0 0-.077-.325zm2.567.815H5.73c-1.164.004-1.164.004-1.295.048-.546.182-.894.592-.946 1.115-.02.189.033.18.1-.018a1.19 1.19 0 0 1 .091-.211l.114-.175c.33-.515.571-.598 1.95-.672 1.226-.065 1.377-.086.45-.087zm1.907.46a.364.364 0 0 0-.376.374c0 .132.075.257.192.318.309.163.656-.158.51-.473a.362.362 0 0 0-.326-.22zm-1.74 1.34c-.016 0-.032 0-.048.002-.24.015-.28.04-.166.1.05.026.1.058.11.07a.384.384 0 0 0 .179.087c.04 0 .067.032.084.097.009.036.028.052.068.06.031.007.08.029.11.05a.21.21 0 0 0 .074.037c.011 0 .029.021.039.047.012.032.032.047.062.047.024 0 .06.017.078.038.02.02.05.037.07.037.023 0 .033.011.03.033-.004.025.005.031.039.027.028-.004.04 0 .031.014-.007.011 0 .02.017.02.034 0 .104.056.105.084 0 .01.031.038.07.06l.072.043-.013-.095a1.02 1.02 0 0 0-1.011-.858zm1.738.88c-.025 0-.047.082-.055.229-.006.116-.02.256-.033.312-.018.082-.017.104.004.116.058.036.16-.475.12-.601-.012-.037-.025-.055-.036-.056zm1.589.014c-.086.004-.08.181-.08.825 0 .916-.009 1.013-.12 1.34-.055.165-.058.182-.03.2.018.011.037.044.043.073a.88.88 0 0 0 .094.222c.048.08.096.152.123.183.039.047.045.043.084-.052a.762.762 0 0 1 .31-.328c.115-.066.115-.066.11-1.023-.005-1.149-.02-1.205-.361-1.372-.075-.036-.128-.066-.165-.068h-.008z"/>
  <path fill="#93458f" d="M7.013.005c-.393 0-.647.004-.626.012.01.003.053.012.094.019.07.012.073.014.037.039-.062.044-.391.329-.508.44-.022.02-.05.037-.061.037-.012 0-.022.008-.022.018 0 .01-.023.031-.051.046a.968.968 0 0 0-.14.109 2.3 2.3 0 0 1-.132.112c-.113.084-.296.245-.296.26 0 .01-.013.018-.028.018-.016 0-.029.009-.029.019s-.01.019-.024.019-.042.019-.062.042a1.82 1.82 0 0 1-.256.212.338.338 0 0 0-.09.083c0 .004-.009.014-.023.025a2.255 2.255 0 0 1-3.78 2.443.326.326 0 0 0-.082.036c-.039.032-.137.076-.158.071-.01-.002-.022.003-.029.011a.66.66 0 0 1-.146.06c-.077.026-.13.053-.124.064.007.011.002.013-.012.004-.025-.015-.17.042-.17.068 0 .009-.016.016-.036.016a.445.445 0 0 0-.12.036c-.061.026-.09.03-.105.015-.049-.05-.023 1.913.027 1.99.002.004.12-.024.264-.06.144-.038.29-.072.327-.077.07-.01.157-.023.46-.074.103-.017.255-.034.337-.038.082-.004.209-.016.282-.027.154-.023.111-.023.814-.015.355.004.555-.001.564-.013a.574.574 0 0 0 .037-.122c.013-.057.038-.137.057-.179.141-.308.182-.386.256-.499a2.006 2.006 0 0 1 1.088-.772c.14-.038.198-.041.873-.048.838-.008.77.011.77-.22 0-.174 0-.174-.083-.242a.505.505 0 0 1 .318-.9c.473-.002.68.55.33.883-.097.093-.153.45-.072.458.013.002.32.004.68.005.73.003.795.012 1.123.16.62.279 1.057.904 1.097 1.567.014.24.122.218-1.09.218-1.05 0-1.05 0-.909.148.078.081.183.219.234.305.093.158.093.157 1.03.168 1.03.012 1.021.01 1.263.133.542.276.63.526.637 1.812.006.98.006.98.104 1.035.24.135.355.34.366.649.01.253.018.245-.248.253-.267.009-.274.003-.274-.197 0-.4-.39-.37-.413.031-.01.16-.01.16-.124.165-.11.005-.196.154-.09.154.015 0 .027.01.027.024a.642.642 0 0 0 .064.206c.027.07.055.158.061.197.006.039.031.095.055.124.024.029.044.073.044.098 0 .025.009.081.02.125l.064.275c.03.125.04.206.03.226-.015.029-.009.244.01.337.01.044.013.045.144.032 1.008-.1 1.87-.929 2.05-1.971.043-.248.044-8.369.001-8.612-.18-1.019-.884-1.758-1.906-1.999C10.638.03 8.194.004 7.013.005zM6.514 1.44c.034 0 .079.006.139.014 1.012.12 1.803.94 1.878 1.947.011.155.011.155-.216.155-.258 0-.266-.005-.267-.154-.002-.711-.693-1.414-1.464-1.491-.168-.017-.169-.017-.169-.242 0-.185-.001-.23.1-.229zm-2.018.313l-.085.073c.053.025.106.052.158.081a1.87 1.87 0 0 0-.073-.154zm-.29.232c-.003.004-.006.008-.006.01 0 .01-.03.037-.067.06a.778.778 0 0 0-.109.081 2.975 2.975 0 0 1-.144.126c.05.362.028.728-.058 1.069.176.129.182.389.014.541.03.096.055.194.075.293a1.877 1.877 0 0 0 .761-1.924 2.569 2.569 0 0 0-.466-.256zm2.345.276c.534-.003 1.144.6 1.15 1.154 0 .131 0 .131-.206.137-.226.005-.254-.005-.254-.092 0-.327-.313-.658-.696-.736-.156-.031-.197-.448-.045-.46a.684.684 0 0 1 .051-.003zm-2.881.17a5.087 5.087 0 0 0-.141.123 1.508 1.508 0 0 1-.155.127c-.02.011-.098.063-.175.116.138.145.26.304.363.473l.042-.004c.068-.276.09-.558.066-.835zm-.655.506a.026.026 0 0 1-.023.018c-.014 0-.04.017-.06.038-.018.02-.044.037-.058.037-.014 0-.026.009-.026.019s-.02.019-.045.019c-.024 0-.049.01-.054.024a.538.538 0 0 1-.147.095c-.159.08-.262.141-.31.184a.249.249 0 0 1-.096.043c-.043.01-.061.024-.061.05 0 .027-.013.036-.058.036-.056 0-.167.05-.167.076 0 .007-.033.018-.072.024a.209.209 0 0 0-.104.047.313.313 0 0 1-.12.06.894.894 0 0 0-.136.05.216.216 0 0 1-.072.024.104.104 0 0 0-.04.015c.35.44.895.722 1.514.708.19-.181.353-.39.481-.622a.35.35 0 0 1-.004-.506 2.583 2.583 0 0 0-.342-.439zm.61 1.03l-.05.001c-.094.175-.209.34-.34.494.165-.036.322-.094.468-.17a2.586 2.586 0 0 0-.077-.325zm2.568.815H5.73c-1.164.004-1.164.004-1.295.048-.546.182-.894.592-.946 1.115-.02.189.033.18.1-.018a1.19 1.19 0 0 1 .091-.211l.114-.175c.33-.515.571-.598 1.95-.672 1.226-.065 1.377-.086.45-.087zm1.907.46a.364.364 0 0 0-.376.374c0 .132.075.257.192.318.309.163.656-.158.51-.473a.362.362 0 0 0-.326-.22zm-1.74 1.34c-.016 0-.032 0-.048.002-.24.015-.28.04-.166.1.05.026.1.058.11.07a.384.384 0 0 0 .179.087c.04 0 .067.032.084.097.009.036.028.052.068.06.031.007.08.029.11.05a.21.21 0 0 0 .074.037c.011 0 .029.021.039.047.012.032.032.047.062.047.024 0 .06.017.078.038.02.02.05.037.07.037.023 0 .033.011.03.033-.004.025.005.031.039.027.028-.004.04 0 .031.014-.007.011 0 .02.017.02.034 0 .104.056.105.084 0 .01.031.038.07.06l.072.043-.013-.095a1.02 1.02 0 0 0-1.011-.858zm1.738.88c-.025 0-.047.082-.055.229-.006.116-.02.256-.033.312-.018.082-.017.104.004.116.058.036.16-.475.12-.601-.012-.037-.025-.055-.036-.056zm1.597.014c-.095-.007-.088.16-.088.825 0 .916-.009 1.013-.12 1.34-.055.165-.058.182-.03.2.018.011.037.044.043.073a.88.88 0 0 0 .094.222c.048.08.096.152.123.183.039.047.045.043.084-.052a.762.762 0 0 1 .31-.328c.115-.066.115-.066.11-1.023-.005-1.149-.02-1.205-.361-1.372-.075-.036-.128-.066-.165-.068z"/>
  <path fill="#b0356b" d="M10.444 12.602c-.019-.093-.026-.308-.01-.337.01-.02 0-.101-.03-.226l-.065-.275a.718.718 0 0 1-.019-.125c0-.025-.02-.069-.044-.098a.303.303 0 0 1-.055-.124 1.207 1.207 0 0 0-.061-.197.642.642 0 0 1-.064-.206c0-.013-.012-.024-.027-.024-.106 0-.02-.149.09-.154.114-.005.114-.005.124-.165.023-.402.413-.431.413-.031 0 .2.007.206.274.197.266-.008.258 0 .248-.253-.01-.309-.127-.514-.366-.649-.098-.055-.098-.055-.103-1.035-.008-1.286-.096-1.536-.638-1.812-.242-.122-.234-.121-1.263-.133-.937-.01-.937-.01-1.03-.168a2.031 2.031 0 0 0-.234-.305c-.141-.148-.141-.148.908-.148 1.213 0 1.105.021 1.09-.218-.039-.663-.476-1.288-1.096-1.567-.308-.139-.396-.152-1.132-.167a50.98 50.98 0 0 1-.671-.017c-.057-.028.006-.354.08-.42.327-.287.155-.949-.247-.952-.046 0 .001-.08.076-.128.208-.133.576.206.625.576.017.131.021.134.258.134.237 0 .255-.009.254-.121-.001-.294-.232-.768-.458-.94-.037-.028-.067-.063-.067-.077 0-.015-.01-.026-.022-.026-.013 0 .002-.026.032-.057.03-.031.067-.055.083-.054a.145.145 0 0 0 .062-.01c.024-.011.06.007.132.067.292.241.471.565.532.96.016.106.033.202.036.215.005.018.071.024.245.024.238 0 .238 0 .227-.183-.026-.45-.214-.9-.53-1.27a.746.746 0 0 1-.131-.188c-.002-.025-.015-.037-.034-.034-.022.004-.027-.004-.018-.028.016-.044.043-.061.095-.062.023 0 .042-.007.042-.016 0-.008.021-.025.047-.037.026-.012.047-.033.047-.048 0-.029.039-.05.095-.05.02 0 .036-.01.036-.023s.02-.042.042-.064c.174-.164.208-.194.215-.194.028 0 .119-.088.119-.116 0-.025.014-.034.056-.034.03 0 .056-.007.056-.016a.34.34 0 0 1 .066-.088c.036-.04.066-.066.066-.058 0 .007.016.004.037-.007.02-.01.035-.029.033-.04-.003-.012.007-.025.021-.03.019-.007.022-.002.01.016-.012.022-.01.022.017 0 .018-.014.032-.036.032-.05 0-.027.04-.046.1-.046.032 0 .035-.004.014-.018-.032-.02.003-.076.048-.076.014 0 .026-.006.026-.014s.042-.038.095-.068c.052-.029.1-.066.106-.081.006-.016.045-.044.088-.063.057-.025.066-.034.035-.035-.041-.002-.041-.002.005-.048.026-.025.058-.042.072-.036.014.005.03-.004.037-.02a.048.048 0 0 1 .04-.03c.017 0 .026-.006.02-.015-.013-.022.06-.097.094-.097.015 0 .027-.008.027-.017 0-.04.114-.143.13-.118.011.02.033.008.088-.044.073-.07.073-.07.373-.059 1.19.045 2.084.825 2.291 2 .043.243.042 8.364 0 8.612-.18 1.042-1.043 1.871-2.051 1.97-.131.014-.135.013-.144-.03zm-.727-2.283a1.76 1.76 0 0 1-.123-.183.88.88 0 0 1-.094-.222c-.006-.03-.025-.062-.042-.073-.029-.018-.026-.035.03-.2.11-.327.119-.424.119-1.34 0-.925-.013-.887.253-.757.341.167.356.223.362 1.372.004.957.004.957-.11 1.023a.762.762 0 0 0-.31.328c-.04.095-.046.099-.085.052zm-1.703-2.2c-.021-.012-.022-.034-.004-.116.013-.056.027-.196.033-.312.011-.213.053-.292.09-.173.04.126-.061.637-.12.601zm-.702-.626c-.039-.023-.07-.05-.07-.06 0-.029-.07-.085-.105-.085-.016 0-.024-.009-.017-.02.008-.013-.003-.018-.031-.014-.034.004-.043-.002-.04-.027.004-.022-.006-.033-.03-.033-.019 0-.05-.017-.069-.037a.123.123 0 0 0-.078-.038c-.03 0-.05-.015-.062-.047-.01-.026-.028-.047-.04-.047a.21.21 0 0 1-.073-.037.343.343 0 0 0-.11-.05c-.04-.008-.06-.024-.068-.06-.017-.065-.044-.097-.084-.097a.384.384 0 0 1-.18-.086.522.522 0 0 0-.11-.072c-.113-.06-.073-.084.167-.1.512-.033.978.343 1.059.857l.013.095-.072-.042zM.042 6.25c-.047-.318.007-.421.248-.47.034-.006.061-.02.061-.031s.025-.016.056-.011c.031.004.059.001.061-.007.003-.008.048-.024.1-.036.051-.011.12-.029.15-.038a.46.46 0 0 1 .109-.017c.027 0 .05-.009.05-.019s.023-.023.052-.03l.087-.02c.022-.007.03-.003.022.01-.006.01.026.003.072-.017a.728.728 0 0 1 .174-.048c.05-.006.095-.017.1-.025.017-.025.416-.112.532-.116.056-.002.057-.003.012-.016-.039-.011-.031-.015.047-.024.285-.033.406-.05.427-.064a.517.517 0 0 1 .127-.029c.057-.007.133-.018.17-.024.317-.053.417-.077.512-.12a.464.464 0 0 1 .166-.044c.032.003.07-.006.085-.018.042-.035.069.02.034.069-.128.177-.366.739-.366.864 0 .072-.023.075-.586.069-.702-.008-.659-.008-.813.015-.073.01-.2.023-.282.027a3.531 3.531 0 0 0-.337.038c-.313.052-.392.065-.46.074a3.899 3.899 0 0 0-.282.064c-.349.09-.313.09-.327-.006zm3.447-.315c.047-.47.45-.912.974-1.07.142-.042.717-.068 1.474-.066.551.001.42.02-.366.05-.894.036-.996.052-1.274.195-.313.16-.586.504-.716.9-.06.187-.11.182-.092-.009zm4.427-.001a.364.364 0 0 1-.192-.318c0-.403.533-.52.702-.155.146.315-.201.636-.51.473zm-2.54-1.585c-.133-.007-.124-.064.019-.118.024-.01.043-.024.041-.032-.007-.033.03-.08.09-.116.043-.026.068-.057.075-.095a.16.16 0 0 1 .041-.08c.025-.02.028-.019.017.01-.008.02-.003.032.013.032.031 0 .054-.075.024-.076-.012 0 .001-.013.03-.029.028-.015.051-.044.051-.063 0-.104.096-.119.14-.022.037.083.11.169.185.218.049.032.05.038.05.209 0 .186-.06.199-.776.162z"/>
  <path fill="#d02e4c" d="M10.444 12.602c-.019-.093-.026-.308-.01-.337.01-.02 0-.101-.03-.226l-.065-.275a.718.718 0 0 1-.019-.125c0-.025-.02-.069-.044-.098a.303.303 0 0 1-.055-.124 1.207 1.207 0 0 0-.061-.197.642.642 0 0 1-.064-.206c0-.013-.012-.024-.027-.024-.106 0-.02-.149.09-.154.114-.005.114-.005.124-.165.023-.402.413-.431.413-.031 0 .2.007.206.274.197.266-.008.258 0 .248-.253-.01-.309-.127-.514-.366-.649-.098-.055-.098-.055-.103-1.035-.008-1.286-.096-1.536-.638-1.812-.242-.122-.234-.121-1.264-.133-.938-.01-.938-.01-1.024-.167a2.116 2.116 0 0 0-.162-.25c-.161-.2-.141-.203 1.148-.204.858 0 .788.02.774-.218-.04-.666-.504-1.319-1.147-1.613-.083-.038-.1-.054-.092-.084.005-.02 0-.037-.011-.037-.012 0-.021.014-.021.032 0 .023-.006.026-.021.01-.022-.02.03-.136.062-.136a.53.53 0 0 0 .144-.117.108.108 0 0 1 .067-.034c.052 0 .104-.043.104-.083 0-.018.016-.036.035-.042.02-.005.047-.03.061-.057a.248.248 0 0 1 .077-.08.412.412 0 0 0 .09-.081c.023-.028.05-.05.06-.05.01 0 .052-.026.092-.058s.081-.052.092-.046c.01.006.014 0 .008-.014-.013-.035.034-.072.11-.087.044-.01.062-.024.067-.056.003-.024.03-.057.06-.074.03-.018.055-.042.055-.055 0-.014.024-.033.052-.044.063-.024.136-.09.136-.123 0-.027.094-.082.14-.082.016 0 .03-.008.03-.019 0-.037.195-.205.228-.195.024.007.029 0 .02-.032-.007-.026-.003-.037.009-.03.01.008.03 0 .043-.016.014-.016.035-.024.048-.02.013.006.034-.003.046-.017.013-.015.034-.027.047-.027.015 0 .02-.015.014-.038-.01-.036-.004-.04.07-.046.015 0 .026-.015.023-.032-.005-.03.086-.11.15-.134.019-.007.043-.033.055-.059.026-.057.13-.113.151-.08.009.014.019 0 .026-.037.009-.043.035-.075.09-.111a.414.414 0 0 0 .093-.077c.008-.014.022-.021.03-.016.01.005.03-.011.047-.037s.043-.047.057-.047c.015 0 .037-.017.048-.039.016-.029.027-.033.045-.018.03.024.078-.022.058-.055-.006-.01 0-.02.016-.02s.033-.016.04-.036c.006-.02.04-.055.076-.077a.281.281 0 0 0 .085-.076c.01-.02.03-.036.042-.036.031 0 .182-.136.182-.165 0-.03.091-.065.137-.053.02.005.03.004.024-.002-.015-.015.046-.08.075-.08.013 0 .027-.019.03-.042.004-.025.022-.044.044-.048.066-.01.119-.045.129-.086.076-.302.425.258.528.846.043.247.043 8.365 0 8.615-.18 1.042-1.043 1.871-2.051 1.97-.131.014-.135.013-.144-.03zm-.727-2.283a1.76 1.76 0 0 1-.123-.183.88.88 0 0 1-.094-.222c-.006-.03-.025-.062-.042-.073-.029-.018-.026-.035.03-.2.11-.327.119-.424.119-1.34 0-.925-.013-.887.253-.757.341.167.356.223.362 1.372.004.957.004.957-.11 1.023a.762.762 0 0 0-.31.328c-.04.095-.046.099-.085.052zm-1.703-2.2c-.021-.012-.022-.034-.004-.116.013-.056.027-.196.033-.312.011-.213.053-.292.09-.173.04.126-.061.637-.12.601zm-.702-.626c-.039-.023-.07-.05-.07-.06 0-.029-.07-.085-.105-.085-.016 0-.024-.009-.017-.02.008-.013-.003-.018-.031-.014-.034.004-.043-.002-.04-.027.004-.022-.006-.033-.03-.033-.019 0-.05-.017-.069-.037a.123.123 0 0 0-.078-.038c-.03 0-.05-.015-.062-.047-.01-.026-.028-.047-.04-.047a.21.21 0 0 1-.073-.037.343.343 0 0 0-.11-.05c-.04-.008-.06-.024-.068-.06-.017-.065-.044-.097-.084-.097a.384.384 0 0 1-.18-.086.523.523 0 0 0-.11-.072c-.05-.027-.08-.051-.065-.056a.488.488 0 0 1 .23-.027c.03.008.068.007.083-.001.033-.019.244.02.36.065a.999.999 0 0 1 .618.776l.013.095-.072-.042zm.668-1.564c-.068-.034-.066-.075.006-.103.07-.027.11-.138.08-.228-.02-.064-.02-.074.01-.096.025-.018.032-.042.025-.086-.007-.05-.001-.065.035-.081.024-.011.044-.026.044-.034 0-.035.108.015.171.08.25.258-.053.704-.371.548z"/>
  <path fill="#e42536" d="M10.445 12.603c-.028-.133-.029-.32-.002-.31.033.012.037-.059.01-.18-.064-.288-.063-.282-.037-.298.038-.023.048-.007.06.097a.34.34 0 0 0 .032.12c.01.013.018.04.016.059-.007.075.003.105.03.094.016-.006.033-.002.04.008.048.079.056-.01.008-.104a.387.387 0 0 1-.038-.147.237.237 0 0 0-.038-.128c-.033-.045-.034-.054-.01-.054a.322.322 0 0 0 .044-.003c.025-.004.078.123.079.192 0 .036.008.074.018.084.015.016.075.292.086.393.008.074.032.14.048.131.009-.005.01-.024.004-.042-.012-.03-.01-.03.02 0 .019.019.042.033.052.033.01 0 .014.008.008.017-.012.02-.123.038-.123.02 0-.026-.063-.038-.083-.016-.015.017-.012.02.013.011.04-.014.044.016.003.032-.105.04-.231.035-.24-.01zm.431-.097c-.036-.04-.055-.091-.07-.19a1.316 1.316 0 0 0-.037-.177c-.013-.033-.008-.057.02-.096.02-.03.032-.058.025-.065-.006-.006-.003-.012.008-.012.019 0 .04.096.072.325.007.049.02.094.03.1.008.005.016.032.016.06.001.05.001.05.038.006.044-.052.047-.124.01-.213a.208.208 0 0 1-.016-.107c.006-.026-.003-.06-.026-.092-.028-.039-.036-.078-.034-.17.003-.096-.002-.122-.027-.128-.047-.012-.036-.121.014-.144.048-.021.05-.046.013-.137-.034-.08-.035-.088-.007-.07.014.008.017.005.008-.009a.053.053 0 0 0-.04-.021c-.015 0-.027-.018-.027-.04a.2.2 0 0 0-.021-.078c-.017-.03-.017-.042 0-.047.017-.006.017-.015-.002-.037-.021-.027-.02-.027.018-.003.024.014.043.041.043.06 0 .018.012.038.028.044.015.006.028.027.028.046 0 .02.008.036.018.036.021 0 .004-.113-.02-.14a.09.09 0 0 1-.017-.052c0-.034-.006-.048-.063-.158-.034-.066-.04-.13-.014-.147.033-.02.112.025.12.069.007.038.009.038.01-.008.004-.057.027-.067.172-.075.195-.012.098-.576-.138-.813-.057-.057-.093-.103-.081-.104.012 0 .005-.008-.015-.017-.034-.014-.035-.017-.006-.028.026-.011.028-.02.01-.048-.016-.026-.015-.041.004-.064.016-.02.017-.03.003-.03-.011 0-.02-.016-.02-.036 0-.02-.011-.047-.024-.06-.052-.056-.07-.124-.065-.254.003-.083-.003-.134-.015-.132-.012.003-.022-.225-.029-.653-.011-.733-.019-.786-.146-1.031a.561.561 0 0 1-.064-.166c.002-.018-.004-.033-.015-.033-.01 0-.018-.016-.018-.036 0-.063-.022-.095-.063-.096-.038 0-.039-.002-.006-.027.05-.038.06-.158.015-.2-.035-.032-.037-.032-.05.008-.011.032-.017.017-.026-.062a.475.475 0 0 1 .002-.144c.008-.026.004-.049-.013-.063-.017-.014-.023-.04-.016-.076a.137.137 0 0 0-.02-.102c-.017-.027-.026-.056-.02-.066.006-.01.005-.029-.003-.042a.556.556 0 0 1-.017-.152c-.002-.1-.01-.133-.034-.147-.036-.02-.042-.09-.007-.09.046 0 .034-.084-.019-.127-.045-.037-.049-.047-.03-.094.014-.04.013-.071-.005-.122-.024-.069-.017-.146.014-.146.009 0 .016.024.017.052 0 .052 0 .052.03-.01.017-.033.042-.06.057-.06.014 0 .034-.021.044-.047.01-.026.03-.047.044-.047.015 0 .04-.022.058-.049a.252.252 0 0 1 .098-.076c.037-.015.07-.042.075-.06.005-.017.04-.045.08-.061.067-.029.07-.034.064-.108-.005-.068-.001-.078.031-.078.024 0 .038-.013.038-.033 0-.02.023-.043.058-.056.056-.02.057-.02.028.011-.016.019-.03.043-.03.054 0 .012-.01.025-.023.03-.013.004-.018.014-.01.022.007.008.04.003.073-.01.05-.02.054-.027.025-.037-.032-.011-.032-.013 0-.025.02-.007.028-.024.022-.04-.006-.016-.002-.029.008-.029s.018.009.018.019c0 .029.062-.002.112-.057a.262.262 0 0 1 .09-.064c.028-.009.042-.028.042-.059 0-.034.01-.045.042-.045.054 0 .103-.089.054-.098-.026-.005-.024-.012.012-.047.042-.042.042-.042.042.014 0 .096.012.089.277-.168a.789.789 0 0 1 .11-.095c.017 0 .055-.045.069-.08.007-.02.032-.033.061-.033.051 0 .103-.038.103-.076 0-.014-.024-.02-.065-.014-.056.006-.062.003-.043-.022.058-.079.108-.096.108-.037 0 .036.003.037.051.01a.624.624 0 0 1 .085-.037c.02-.007.03-.026.028-.053-.004-.035.003-.042.037-.039.024.003.043-.004.043-.014s.01-.018.024-.018c.027 0 .145-.124.145-.152 0-.01.02-.017.044-.017.055 0 .078-.028.096-.11.05-.233.057.023.066 2.415.013 3.412 0 4.546-.051 4.744-.222.838-.763 1.441-1.54 1.717-.15.053-.15.053-.2-.004z"/>
</svg>
